HIERARCHY
ROOT Hips
{
	OFFSET -0.031289 103.266464 0.443827
	CHANNELS 6 Xposition Yposition Zposition Xrotation Yrotation Zrotation 
	JOINT Spine
	{
		OFFSET -0.002448 12.777534 0.315252
		CHANNELS 3 Xrotation Yrotation Zrotation
		JOINT Spine1
		{
			OFFSET -0.002040 5.816851 0.032640
			CHANNELS 3 Xrotation Yrotation Zrotation
			JOINT Spine1_split
			{
				OFFSET -0.002040 5.816851 0.032640
				CHANNELS 3 Xrotation Yrotation Zrotation
				JOINT Spine2
				{
					OFFSET -0.002040 5.816851 0.032640
					CHANNELS 3 Xrotation Yrotation Zrotation
					JOINT Neck
					{
						OFFSET -0.003672 21.199554 -0.826883
						CHANNELS 3 Xrotation Yrotation Zrotation
						JOINT Head
						{
							OFFSET -0.000000 20.442154 4.834770
							CHANNELS 3 Xrotation Yrotation Zrotation
							JOINT HeadTop_End
							{
								OFFSET 0.000000 34.668427 4.968426
								CHANNELS 3 Xrotation Yrotation Zrotation
								End Site
								{
									OFFSET 0.000000 0.000000 0.000000
								}
							}
						}
					}
					JOINT LeftShoulder
					{
						OFFSET 3.288174 8.794213 -1.372251
						CHANNELS 3 Xrotation Yrotation Zrotation
						JOINT LeftShoulder_split
						{
							OFFSET 3.288174 8.794213 -1.372251
							CHANNELS 3 Xrotation Yrotation Zrotation
							JOINT LeftArm
							{
								OFFSET 11.953302 -2.279037 -0.146175
								CHANNELS 3 Xrotation Yrotation Zrotation
								JOINT LeftForeArm
								{
									OFFSET 18.448874 0.000061 -0.000024
									CHANNELS 3 Xrotation Yrotation Zrotation
									JOINT LeftHand
									{
										OFFSET 29.527794 0.000092 -0.000021
										CHANNELS 3 Xrotation Yrotation Zrotation
										JOINT LeftHandThumb1
										{
											OFFSET 10.739838 -2.369766 9.225297
											CHANNELS 3 Xrotation Yrotation Zrotation
											JOINT LeftHandThumb2
											{
												OFFSET 4.926178 -2.844101 2.844107
												CHANNELS 3 Xrotation Yrotation Zrotation
												JOINT LeftHandThumb3
												{
													OFFSET 4.614899 -2.664444 2.664389
													CHANNELS 3 Xrotation Yrotation Zrotation
													JOINT LeftHandThumb4
													{
														OFFSET 4.432472 -2.559052 2.559026
														CHANNELS 3 Xrotation Yrotation Zrotation
														End Site
														{
															OFFSET 0.000000 0.000000 0.000000
														}
													}
												}
											}
										}
										JOINT LeftHandIndex1
										{
											OFFSET 26.467659 0.187592 6.405249
											CHANNELS 3 Xrotation Yrotation Zrotation
											JOINT LeftHandIndex2
											{
												OFFSET 8.792877 0.000046 -0.000014
												CHANNELS 3 Xrotation Yrotation Zrotation
												JOINT LeftHandIndex3
												{
													OFFSET 10.075157 0.000031 -0.000014
													CHANNELS 3 Xrotation Yrotation Zrotation
													End Site
													{
														OFFSET 0.000000 0.000000 0.000000
													}
												}
											}
										}
										JOINT LeftHandMiddle1
										{
											OFFSET 25.764420 0.000076 -0.000063
											CHANNELS 3 Xrotation Yrotation Zrotation
											JOINT LeftHandMiddle2
											{
												OFFSET 9.368942 -0.468658 -0.500905
												CHANNELS 3 Xrotation Yrotation Zrotation
												JOINT LeftHandMiddle3
												{
													OFFSET 10.758461 -0.538101 0.000023
													CHANNELS 3 Xrotation Yrotation Zrotation
													End Site
													{
														OFFSET 0.000000 0.000000 0.000000
													}
												}
											}
										}
										JOINT LeftHandRing1
										{
											OFFSET 24.660912 0.144745 -6.225863
											CHANNELS 3 Xrotation Yrotation Zrotation
											JOINT LeftHandRing2
											{
												OFFSET 9.393806 0.000046 -0.000017
												CHANNELS 3 Xrotation Yrotation Zrotation
												JOINT LeftHandRing3
												{
													OFFSET 9.928528 -0.000015 -0.000007
													CHANNELS 3 Xrotation Yrotation Zrotation
													End Site
													{
														OFFSET 0.000000 0.000000 0.000000
													}
												}
											}
										}
										JOINT LeftHandPinky1
										{
											OFFSET 23.655312 0.125748 -12.815530
											CHANNELS 3 Xrotation Yrotation Zrotation
											JOINT LeftHandPinky2
											{
												OFFSET 8.425102 0.000031 -0.000015
												CHANNELS 3 Xrotation Yrotation Zrotation
												JOINT LeftHandPinky3
												{
													OFFSET 8.146988 0.000015 -0.000021
													CHANNELS 3 Xrotation Yrotation Zrotation
													End Site
													{
														OFFSET 0.000000 0.000000 0.000000
													}
												}
											}
										}
									}
								}
							}
						}
					}
					JOINT RightShoulder
					{
						OFFSET -3.249397 8.794213 -1.372251
						CHANNELS 3 Xrotation Yrotation Zrotation
						JOINT RightShoulder_split
						{
							OFFSET -3.249397 8.794213 -1.372251
							CHANNELS 3 Xrotation Yrotation Zrotation
							JOINT RightArm
							{
								OFFSET -11.953302 -2.279037 -0.146175
								CHANNELS 3 Xrotation Yrotation Zrotation
								JOINT RightForeArm
								{
									OFFSET -18.448874 0.000061 -0.000024
									CHANNELS 3 Xrotation Yrotation Zrotation
									JOINT RightHand
									{
										OFFSET -29.527794 0.000092 -0.000021
										CHANNELS 3 Xrotation Yrotation Zrotation
										JOINT RightHandThumb1
										{
											OFFSET -10.739838 -2.369766 9.225297
											CHANNELS 3 Xrotation Yrotation Zrotation
											JOINT RightHandThumb2
											{
												OFFSET -4.926178 -2.844101 2.844107
												CHANNELS 3 Xrotation Yrotation Zrotation
												JOINT RightHandThumb3
												{
													OFFSET -4.614899 -2.664444 2.664389
													CHANNELS 3 Xrotation Yrotation Zrotation
													JOINT RightHandThumb4
													{
														OFFSET -4.432472 -2.559052 2.559026
														CHANNELS 3 Xrotation Yrotation Zrotation
														End Site
														{
															OFFSET 0.000000 0.000000 0.000000
														}
													}
												}
											}
										}
										JOINT RightHandIndex1
										{
											OFFSET -26.467659 0.187592 6.405249
											CHANNELS 3 Xrotation Yrotation Zrotation
											JOINT RightHandIndex2
											{
												OFFSET -8.792877 0.000046 -0.000014
												CHANNELS 3 Xrotation Yrotation Zrotation
												JOINT RightHandIndex3
												{
													OFFSET -10.075157 0.000031 -0.000014
													CHANNELS 3 Xrotation Yrotation Zrotation
													End Site
													{
														OFFSET 0.000000 0.000000 0.000000
													}
												}
											}
										}
										JOINT RightHandMiddle1
										{
											OFFSET -25.764420 0.000076 -0.000063
											CHANNELS 3 Xrotation Yrotation Zrotation
											JOINT RightHandMiddle2
											{
												OFFSET -9.368942 -0.468658 -0.500905
												CHANNELS 3 Xrotation Yrotation Zrotation
												JOINT RightHandMiddle3
												{
													OFFSET -10.758461 -0.538101 0.000023
													CHANNELS 3 Xrotation Yrotation Zrotation
													End Site
													{
														OFFSET 0.000000 0.000000 0.000000
													}
												}
											}
										}
										JOINT RightHandRing1
										{
											OFFSET -24.660912 0.144745 -6.225863
											CHANNELS 3 Xrotation Yrotation Zrotation
											JOINT RightHandRing2
											{
												OFFSET -9.393806 0.000046 -0.000017
												CHANNELS 3 Xrotation Yrotation Zrotation
												JOINT RightHandRing3
												{
													OFFSET -9.928528 -0.000015 -0.000007
													CHANNELS 3 Xrotation Yrotation Zrotation
													End Site
													{
														OFFSET 0.000000 0.000000 0.000000
													}
												}
											}
										}
										JOINT RightHandPinky1
										{
											OFFSET -23.655312 0.125748 -12.815530
											CHANNELS 3 Xrotation Yrotation Zrotation
											JOINT RightHandPinky2
											{
												OFFSET -8.425102 0.000031 -0.000015
												CHANNELS 3 Xrotation Yrotation Zrotation
												JOINT RightHandPinky3
												{
													OFFSET -8.146980 0.000015 -0.000021
													CHANNELS 3 Xrotation Yrotation Zrotation
													End Site
													{
														OFFSET 0.000000 0.000000 0.000000
													}
												}
											}
										}
									}
								}
							}
						}
					}
				}
			}
		}
	}
	JOINT LeftUpLeg
	{
		OFFSET 11.394079 -6.187805 -0.413817
		CHANNELS 3 Xrotation Yrotation Zrotation
		JOINT LeftLeg
		{
			OFFSET 0.435522 -32.302582 3.732836
			CHANNELS 3 Xrotation Yrotation Zrotation
			JOINT LeftFoot
			{
				OFFSET -0.422448 -48.265030 -6.423308
				CHANNELS 3 Xrotation Yrotation Zrotation
				JOINT LeftToeBase
				{
					OFFSET 4.230914 -16.068172 23.438400
					CHANNELS 3 Xrotation Yrotation Zrotation
					JOINT LeftToe_End
					{
						OFFSET 4.510741 0.695408 19.974636
						CHANNELS 3 Xrotation Yrotation Zrotation
						End Site
						{
							OFFSET 0.000000 0.000000 0.000000
						}
					}
				}
			}
		}
	}
	JOINT RightUpLeg
	{
		OFFSET -11.333660 -6.187805 -0.413817
		CHANNELS 3 Xrotation Yrotation Zrotation
		JOINT RightLeg
		{
			OFFSET -0.425090 -32.302704 3.733010
			CHANNELS 3 Xrotation Yrotation Zrotation
			JOINT RightFoot
			{
				OFFSET 0.438313 -48.264862 -6.423481
				CHANNELS 3 Xrotation Yrotation Zrotation
				JOINT RightToeBase
				{
					OFFSET -4.230914 -16.068172 23.438402
					CHANNELS 3 Xrotation Yrotation Zrotation
					JOINT RightToe_End
					{
						OFFSET -4.510741 0.695407 19.974638
						CHANNELS 3 Xrotation Yrotation Zrotation
						End Site
						{
							OFFSET 0.000000 0.000000 0.000000
						}
					}
				}
			}
		}
	}
}
MOTION
Frames: 6
Frame Time: 0.016667
-4.510179 93.249443 -3.116639 -16.040276 -38.520641 -7.348160 5.994888 1.776647 -0.370406 12.035806 3.214012 -1.555559 0.000000 0.000000 0.000000 12.035808 3.214025 -1.555563 0.808820 2.930025 5.847935 3.843913 16.036796 -7.029035 -0.000001 -0.000001 0.000001 -0.675797 6.367326 14.435301 0.000000 0.000000 0.000000 -28.790928 -37.067153 1.586244 12.375265 -28.236586 -8.604841 -1.139128 -7.813774 16.747400 5.500723 -2.723638 -12.165316 2.301524 6.710978 2.184988 -0.000450 -0.000720 0.000056 -0.000000 -0.000001 -0.000000 -5.892606 -8.147438 -45.292371 -2.467069 -2.813608 -53.539469 0.000000 0.000001 0.000001 -4.194603 -4.482140 -46.266701 -2.062885 -0.703253 -47.149025 -0.000000 0.000001 -0.000001 0.600586 6.939483 -53.771248 -1.290221 -3.535994 -50.007332 -0.000000 0.000001 0.000001 4.788678 16.693534 -50.020272 -1.026839 -6.055965 -59.526478 -0.000000 -0.000000 0.000000 0.346725 -1.487432 -4.124219 0.000000 0.000000 0.000000 -25.757769 28.229394 -3.418281 1.196722 30.726224 10.054058 -17.683390 20.850220 5.603887 17.544644 5.836630 31.901163 6.381572 -16.049741 -2.834704 -0.000449 0.000718 -0.000057 -0.000000 0.000000 -0.000002 -5.202737 8.364603 32.097726 -0.987389 0.936090 40.426565 0.000001 -0.000000 0.000001 -3.736228 3.344031 33.069099 -0.811497 -0.981779 34.127778 -0.000000 0.000001 0.000001 2.828114 -8.440440 41.067861 -1.012914 3.722839 36.764186 -0.000001 -0.000001 -0.000000 6.842196 -17.605352 37.713272 -1.756099 8.151697 46.069913 -0.000003 0.000000 -0.000000 -30.785281 1.488589 13.851990 41.520754 -10.520754 1.628125 11.989717 -0.167008 -13.927802 -17.826700 0.234531 1.090413 -0.000000 0.000002 0.000000 2.087482 -17.870719 -17.011904 37.978901 -7.025054 -0.668285 -24.296622 -4.090572 15.108327 -11.738455 -3.077274 -1.215577 0.000001 -0.000001 -0.000000 
-6.693049 99.324516 -2.600376 -16.447282 -38.923541 -7.613720 5.389741 1.850293 -0.435882 10.847842 3.499701 -2.042201 0.000000 0.000000 0.000000 10.847841 3.499689 -2.042199 3.765082 2.490151 6.424215 6.751135 15.504524 -8.701759 0.000001 -0.000001 -0.000000 -1.740824 10.008586 19.408105 0.000000 0.000000 0.000000 -26.192560 -34.609132 5.469648 13.331710 -27.802415 -8.606285 -1.382947 -9.335975 16.846204 4.980715 -2.552255 -11.181747 2.299094 6.706193 2.185918 -0.000452 -0.000721 0.000053 -0.000000 0.000001 -0.000000 -5.471805 -7.966403 -43.628380 -2.309047 -2.693034 -51.899602 0.000001 0.000000 -0.000000 -4.013844 -4.431806 -44.621260 -1.926842 -0.585889 -45.522446 0.000001 -0.000002 0.000002 0.551368 7.002851 -52.129906 -1.214902 -3.470310 -48.376475 -0.000000 -0.000002 -0.000002 4.450038 16.693447 -48.294270 -0.996728 -6.036887 -57.892861 -0.000000 -0.000003 -0.000001 0.297387 -2.580769 -7.091952 0.000000 0.000000 0.000000 -24.941435 30.141621 -5.999928 4.265918 24.134260 8.758745 -18.518193 21.092490 10.241442 17.427709 5.234449 31.009260 6.404887 -16.096177 -2.835200 -0.000449 0.000717 -0.000057 -0.000001 0.000002 0.000001 -4.895533 8.097003 31.512304 -0.950111 0.892324 39.854461 0.000001 0.000001 -0.000002 -3.683445 3.322408 32.494454 -0.781108 -1.022805 33.570288 -0.000002 -0.000000 0.000002 2.670350 -8.370111 40.459951 -0.983762 3.683850 36.207335 0.000001 0.000000 -0.000000 6.491064 -17.402854 37.012587 -1.724682 8.121731 45.505835 -0.000000 0.000000 0.000000 -22.482292 5.187617 14.121838 27.181665 -11.516049 2.768578 26.225003 -2.549102 -15.631603 -19.650564 -0.116278 -0.049006 -0.000000 0.000000 -0.000000 9.201988 -18.261913 -13.917505 26.770730 -4.726359 -0.339343 -12.861343 -2.455451 12.967986 -28.662035 -1.153869 -4.150379 0.000001 0.000001 -0.000000 
-8.235762 104.887222 -2.339337 -15.788355 -39.770638 -7.104495 5.031416 1.951995 -0.465897 10.148497 3.743869 -2.337035 0.000000 0.000000 0.000000 10.148495 3.743884 -2.337035 6.185547 2.219079 6.632937 8.363083 15.206680 -10.348301 -0.000001 -0.000000 0.000000 -3.167070 13.780726 23.119685 0.000000 0.000000 0.000000 -24.890505 -30.313783 7.421652 12.072852 -29.418834 -8.364245 -1.777833 -10.386353 18.481414 4.344086 -2.376637 -10.013833 2.303099 6.713070 2.187138 -0.000451 -0.000722 0.000053 -0.000003 0.000001 0.000002 -4.998090 -7.722425 -41.715872 -2.130945 -2.548166 -50.004556 -0.000000 0.000001 -0.000001 -3.809820 -4.385007 -42.716225 -1.772120 -0.443846 -43.620043 0.000000 -0.000003 -0.000001 0.493935 7.056167 -50.204062 -1.128404 -3.389670 -46.454432 0.000000 0.000000 0.000001 4.061411 16.663413 -46.254355 -0.962133 -6.013754 -55.971566 0.000000 -0.000001 0.000001 0.192153 -3.941857 -9.435482 0.000000 0.000000 0.000000 -25.101416 30.608004 -7.087973 5.244335 19.131385 7.434458 -19.099591 20.510754 15.488069 17.020579 4.544968 29.581235 6.347422 -15.956633 -2.829217 -0.000444 0.000717 -0.000057 0.000002 0.000001 0.000001 -4.552287 7.776716 30.667379 -0.896366 0.827340 39.014689 0.000000 0.000001 -0.000002 -3.607571 3.294078 31.650373 -0.735068 -1.086492 32.709035 0.000002 -0.000001 -0.000000 2.506342 -8.299234 39.572692 -0.939247 3.622426 35.337558 -0.000001 -0.000000 -0.000000 6.115209 -17.186382 36.012480 -1.676856 8.075028 44.637513 0.000000 0.000000 0.000000 -14.429161 8.128391 12.504210 12.545529 -17.678509 2.652011 39.788915 -4.385045 -14.243478 -26.964019 0.101613 -2.543102 -0.000000 -0.000002 0.000000 10.243464 -17.286995 -12.737388 20.342007 -2.732079 -1.524332 1.548273 0.080913 12.835359 -27.818560 1.811337 -7.586580 -0.000000 -0.000000 -0.000000 
-8.893973 110.883835 -2.505003 -14.543266 -40.118458 -5.418692 4.993285 2.067817 -0.744407 10.072719 3.936677 -2.636162 0.000000 0.000000 0.000000 10.072721 3.936692 -2.636164 8.079795 2.146872 6.397282 8.432133 15.201844 -11.751663 0.000003 0.000000 0.000000 -4.630813 17.333256 25.050897 0.000000 0.000000 0.000000 -24.671774 -24.530107 8.335390 8.329417 -33.007600 -8.385555 -2.877153 -10.822854 22.189961 3.593923 -2.209306 -8.678030 2.315132 6.734693 2.188486 -0.000449 -0.000720 0.000056 -0.000002 -0.000001 -0.000002 -4.487636 -7.409813 -39.598657 -1.938386 -2.380054 -47.894164 0.000002 -0.000001 0.000002 -3.588606 -4.345123 -40.590356 -1.603447 -0.278033 -41.475668 -0.000000 -0.000001 -0.000000 0.429773 7.092174 -48.026339 -1.033270 -3.294513 -44.271493 -0.000001 0.000001 0.000003 3.634448 16.592882 -43.932139 -0.923780 -5.986495 -53.793812 -0.000000 0.000001 -0.000001 0.029636 -5.466245 -10.974411 0.000000 0.000000 0.000000 -25.840083 29.123906 -7.602894 3.749131 16.277452 6.271799 -19.898293 19.528721 19.260864 16.344072 3.798784 27.670596 6.214197 -15.643461 -2.816801 -0.000447 0.000718 -0.000057 -0.000001 -0.000000 0.000001 -4.186625 7.407517 29.600445 -0.829114 0.743176 37.941322 0.000002 0.000001 -0.000003 -3.512315 3.260426 30.570813 -0.675511 -1.171757 31.567980 -0.000003 -0.000001 -0.000001 2.339507 -8.225218 38.438273 -0.881298 3.539346 34.176853 0.000002 0.000000 0.000000 5.725371 -16.954604 34.744052 -1.614321 8.012185 43.489645 0.000001 0.000000 0.000001 -11.427798 8.782217 10.285435 7.692742 -24.649360 2.206312 43.568073 -5.765769 -16.541588 -20.104617 -1.095372 -0.602521 0.000001 -0.000002 0.000000 11.933327 -17.681372 -13.817718 8.784419 -0.877382 -2.348025 19.841548 2.517872 18.507748 -28.762193 2.704317 -4.569949 -0.000000 -0.000001 -0.000000 
-8.582531 116.919083 -2.786834 -13.156078 -39.606426 -3.050963 5.145621 2.154169 -1.138660 10.376423 4.037869 -3.105351 0.000000 0.000000 0.000000 10.376423 4.037867 -3.105351 9.652199 2.282493 5.731344 7.016952 15.557569 -12.731648 -0.000000 -0.000001 0.000001 -5.745065 20.421243 24.929519 0.000000 0.000000 0.000000 -25.031303 -17.671614 9.265137 2.284818 -38.060061 -9.510583 -5.083352 -10.669068 27.761456 2.756533 -2.054403 -7.211374 2.332612 6.765548 2.189444 -0.000449 -0.000720 0.000057 -0.000000 0.000001 0.000003 -3.957607 -7.033362 -37.314488 -1.737131 -2.189879 -45.607659 0.000001 -0.000000 -0.000001 -3.354000 -4.303094 -38.284494 -1.426997 -0.090525 -39.138548 -0.000000 0.000002 0.000001 0.361511 7.114838 -45.649050 -0.933384 -3.186234 -41.883717 -0.000001 0.000003 -0.000000 3.185495 16.479571 -41.391578 -0.882878 -5.955251 -51.413795 0.000002 -0.000001 -0.000003 -0.169271 -7.015040 -11.581045 0.000000 0.000000 0.000000 -26.790927 25.557017 -8.317875 -0.230634 15.666391 5.385387 -21.443135 18.619178 19.984333 15.410927 3.031003 25.349170 6.017749 -15.186212 -2.798070 -0.000450 0.000718 -0.000058 -0.000001 -0.000001 0.000001 -3.811021 6.992048 28.343287 -0.751558 0.641736 36.668817 -0.000000 0.000001 0.000000 -3.400957 3.220011 29.290710 -0.606420 -1.275455 30.198992 0.000003 -0.000000 0.000002 2.174490 -8.146499 37.096140 -0.813941 3.438053 32.781322 -0.000001 0.000002 -0.000001 5.334108 -16.703152 33.256188 -1.540747 7.935362 42.114021 0.000002 -0.000000 -0.000000 -10.064282 8.440697 8.529562 4.454814 -27.484092 -0.108043 47.085900 -8.230352 -21.360734 -10.440461 -2.494898 6.560815 0.000002 0.000000 0.000000 6.072054 -17.287784 -18.365844 11.266917 -0.898803 -1.385338 24.884814 2.922135 19.855719 -16.097327 3.035714 -5.778119 0.000000 -0.000001 0.000000 
-7.909244 121.846085 -3.167032 -11.436094 -38.869531 -0.510390 5.451636 2.217568 -1.383198 10.994591 4.056368 -3.534890 0.000000 0.000000 0.000000 10.994591 4.056362 -3.534895 11.172534 2.606235 4.720015 4.460494 16.291494 -13.182299 0.000000 -0.000000 0.000000 -6.254009 22.882983 22.853932 0.000000 0.000000 0.000000 -25.424672 -10.204052 10.884947 -5.545720 -43.681583 -12.648031 -8.417425 -10.087912 34.250428 1.892935 -1.900832 -5.681530 2.346144 6.786409 2.189057 -0.000451 -0.000721 0.000058 -0.000000 0.000001 0.000003 -3.426373 -6.613474 -34.891024 -1.532298 -1.979677 -43.183485 -0.000000 0.000000 -0.000001 -3.106319 -4.231547 -35.842835 -1.249918 0.113773 -36.681623 -0.000000 0.000000 -0.000001 0.293044 7.144572 -43.154406 -0.833660 -3.068957 -39.386457 -0.000001 -0.000001 0.000002 2.736861 16.334488 -38.745023 -0.841356 -5.920960 -48.920595 0.000000 -0.000000 -0.000000 -0.377082 -8.457460 -11.198613 0.000000 0.000000 0.000000 -27.865473 20.279965 -9.520856 -6.383914 16.971832 4.974631 -23.889384 18.056309 17.108804 14.228511 2.276594 22.715560 5.782081 -14.640364 -2.773908 -0.000448 0.000719 -0.000058 0.000001 -0.000002 0.000000 -3.435695 6.530521 26.918122 -0.666681 0.525073 35.231212 0.000001 -0.000001 0.000001 -3.275508 3.167292 27.845175 -0.533336 -1.391170 28.694892 0.000001 -0.000000 0.000003 2.018411 -8.063142 35.595254 -0.742919 3.325455 31.256674 -0.000000 -0.000003 -0.000001 4.957102 -16.423449 31.622290 -1.461392 7.848688 40.600031 0.000002 -0.000002 0.000001 -14.455134 7.179411 7.878099 9.373840 -26.339477 -1.922077 48.526886 -10.525290 -26.101926 -2.181000 -0.786122 -2.551562 0.000003 -0.000001 -0.000001 -4.295642 -15.756259 -24.118429 22.484546 0.957710 1.777633 23.831464 1.513372 17.199484 -11.788737 3.003690 -9.396213 -0.000001 -0.000001 -0.000000 
